<?xml version="1.0" encoding="UTF-8" standalone="no"?><!DOCTYPE svg PUBLIC "-//W3C//DTD SVG 1.1//EN" "http://www.w3.org/Graphics/SVG/1.1/DTD/svg11.dtd"><svg width="100%" height="100%" viewBox="0 0 62 59" version="1.1" xmlns="http://www.w3.org/2000/svg" xmlns:xlink="http://www.w3.org/1999/xlink" xml:space="preserve" xmlns:serif="http://www.serif.com/" style="fill-rule:evenodd;clip-rule:evenodd;stroke-linejoin:round;stroke-miterlimit:1.41421;"><path d="M28.378,14.73l0,19.64l18.058,0l0,-4.91l-12.899,0l0,-14.73l-5.159,0Zm28,18.862l5.155,0.391c-0.341,2.096 -0.906,4.114 -1.682,6.039l-4.644,-2.222c0.516,-1.353 0.911,-2.757 1.171,-4.208Zm-6.573,19.213l-3.645,-3.542c-1.254,0.874 -2.595,1.64 -4.012,2.29l1.726,4.662c2.118,-0.925 4.105,-2.072 5.931,-3.41Zm3.163,-10.578c-0.864,1.34 -1.855,2.595 -2.964,3.751l3.622,3.518c1.504,-1.539 2.835,-3.231 3.97,-5.053l-4.628,-2.216Zm-52.968,-12.767c0,16.27 13.866,29.461 30.968,29.461c2.788,0 5.479,-0.383 8.049,-1.041l-1.716,-4.65c-2.03,0.491 -4.146,0.781 -6.333,0.781c-14.23,0 -25.806,-11.014 -25.806,-24.551c0,-13.537 11.576,-24.55 25.806,-24.55c5.765,0 11.075,1.827 15.373,4.883l-5.289,5.03l18.097,3.325l-3.495,-17.218l-5.635,5.36c-5.252,-3.923 -11.854,-6.29 -19.051,-6.29c-17.102,0 -30.968,13.191 -30.968,29.46Zm61.329,-5.791l-5.356,0c0.421,1.623 0.674,3.3 0.743,5.025l5.199,0.396c-0.026,-1.854 -0.22,-3.668 -0.586,-5.421Z" style="fill:#8550ce;fill-rule:nonzero;"/></svg>