<?xml version="1.0" encoding="UTF-8" standalone="no"?><!DOCTYPE svg PUBLIC "-//W3C//DTD SVG 1.1//EN" "http://www.w3.org/Graphics/SVG/1.1/DTD/svg11.dtd"><svg width="100%" height="100%" viewBox="0 0 65 59" version="1.1" xmlns="http://www.w3.org/2000/svg" xmlns:xlink="http://www.w3.org/1999/xlink" xml:space="preserve" xmlns:serif="http://www.serif.com/" style="fill-rule:evenodd;clip-rule:evenodd;stroke-linejoin:round;stroke-miterlimit:1.41421;"><path d="M44.775,29.5c-8.133,0 -14.73,6.597 -14.73,14.73c0,8.134 6.597,14.73 14.73,14.73c8.134,0 14.73,-6.596 14.73,-14.73c0,-8.133 -6.596,-14.73 -14.73,-14.73Zm1.228,20.804l0,1.291l-1.228,0l0,-1.225c-1.272,-0.022 -2.585,-0.324 -3.682,-0.891l0.559,-2.018c1.174,0.457 2.735,0.94 3.958,0.663c1.409,-0.319 1.699,-1.77 0.14,-2.467c-1.142,-0.533 -4.638,-0.987 -4.638,-3.982c0,-1.672 1.277,-3.172 3.663,-3.499l0,-1.311l1.228,0l0,1.25c0.888,0.024 1.885,0.179 2.997,0.515l-0.444,2.023c-0.943,-0.331 -1.984,-0.631 -3,-0.569c-1.827,0.105 -1.989,1.689 -0.712,2.352c2.101,0.986 4.841,1.718 4.841,4.352c0.003,2.107 -1.65,3.229 -3.682,3.516Zm3.987,-24.99c2.779,-0.547 5.307,-1.537 7.06,-2.939l0,1.601c0,1.225 -0.947,2.345 -2.472,3.26c-1.426,-0.827 -2.966,-1.473 -4.588,-1.922Zm-5.215,-14.227c6.562,0 12.275,-2.472 12.275,-5.524c0,-3.051 -5.713,-5.523 -12.275,-5.523c-6.56,0 -12.275,2.472 -12.275,5.523c0,3.052 5.715,5.524 12.275,5.524Zm0.228,-4.932c-0.734,-0.221 -2.98,-0.407 -2.98,-1.657c0,-0.697 0.82,-1.318 2.352,-1.456l0,-0.547l0.788,0l0,0.518c0.575,0.012 1.213,0.073 1.925,0.221l-0.285,0.839c-0.543,-0.125 -1.146,-0.243 -1.738,-0.243l-0.177,0.003c-1.183,0.049 -1.279,0.704 -0.461,0.979c1.342,0.415 3.11,0.717 3.11,1.817c0,0.876 -1.065,1.345 -2.374,1.463l0,0.54l-0.788,0l0,-0.51c-0.805,-0.008 -1.66,-0.138 -2.362,-0.374l0.361,-0.842c0.599,0.155 1.355,0.31 2.033,0.31l0.511,-0.035c0.905,-0.13 1.087,-0.736 0.085,-1.026Zm-27.233,31.938c3.547,0 6.813,-0.739 9.096,-1.886c0.763,-1.694 1.753,-3.263 2.941,-4.662c-1.107,-2.561 -6.233,-4.5 -12.037,-4.5c-6.56,0 -12.275,2.472 -12.275,5.524c0,3.051 5.715,5.524 12.275,5.524Zm0.228,-4.933c-0.734,-0.221 -2.98,-0.407 -2.98,-1.657c0,-0.697 0.822,-1.318 2.352,-1.456l0,-0.547l0.788,0l0,0.518c0.574,0.012 1.212,0.074 1.924,0.221l-0.287,0.84c-0.54,-0.126 -1.144,-0.243 -1.735,-0.243l-0.177,0.002c-1.184,0.049 -1.277,0.705 -0.462,0.98c1.343,0.414 3.111,0.716 3.111,1.816c0,0.877 -1.066,1.346 -2.374,1.463l0,0.541l-0.788,0l0,-0.511c-0.808,-0.007 -1.66,-0.138 -2.362,-0.373l0.361,-0.842c0.599,0.154 1.355,0.309 2.033,0.309l0.51,-0.034c0.904,-0.13 1.088,-0.737 0.086,-1.027Zm9.828,20.944c-2.257,1.449 -5.991,2.401 -10.056,2.401c-6.56,0 -12.275,-2.472 -12.275,-5.523l0,-1.601c2.813,2.254 7.632,3.442 12.275,3.442c3.034,0 6.135,-0.518 8.713,-1.5c0.375,0.967 0.825,1.898 1.343,2.781Zm-22.331,-9.26l0,-1.598c2.813,2.251 7.632,3.439 12.275,3.439c2.551,0 5.141,-0.37 7.434,-1.068c0.081,1.152 0.262,2.274 0.535,3.364c-2.18,0.852 -4.969,1.387 -7.969,1.387c-6.56,0 -12.275,-2.472 -12.275,-5.524Zm0,-6.138l0,-1.6c2.813,2.253 7.632,3.442 12.275,3.442c2.767,0 5.585,-0.432 8.018,-1.25c-0.314,1.21 -0.516,2.46 -0.592,3.746c-2.096,0.732 -4.672,1.186 -7.426,1.186c-6.56,0 -12.275,-2.472 -12.275,-5.524Zm27.005,-27.005l0,-1.601c2.813,2.254 7.633,3.442 12.275,3.442c4.645,0 9.462,-1.188 12.275,-3.442l0,1.601c0,3.052 -5.713,5.524 -12.275,5.524c-6.56,0 -12.275,-2.472 -12.275,-5.524Zm0,12.275l0,-1.601c1.75,1.402 4.282,2.392 7.061,2.939c-1.623,0.449 -3.16,1.095 -4.586,1.922c-1.527,-0.915 -2.475,-2.035 -2.475,-3.26Zm0,-6.137l0,-1.599c2.813,2.252 7.633,3.44 12.275,3.44c4.645,0 9.462,-1.188 12.275,-3.44l0,1.599c0,3.051 -5.713,5.523 -12.275,5.523c-6.56,0 -12.275,-2.472 -12.275,-5.523Z" style="fill:#12b896;fill-rule:nonzero;"/></svg>