<?xml version="1.0" encoding="UTF-8" standalone="no"?><!DOCTYPE svg PUBLIC "-//W3C//DTD SVG 1.1//EN" "http://www.w3.org/Graphics/SVG/1.1/DTD/svg11.dtd"><svg width="100%" height="100%" viewBox="0 0 186 149" version="1.1" xmlns="http://www.w3.org/2000/svg" xmlns:xlink="http://www.w3.org/1999/xlink" xml:space="preserve" xmlns:serif="http://www.serif.com/" style="fill-rule:evenodd;clip-rule:evenodd;stroke-linejoin:round;stroke-miterlimit:1.41421;"><g id="Layer1"><g opacity="0.28"><path d="M25.683,118.327l-4.043,0l-0.64,-2.821c-0.412,-0.335 -0.931,-0.613 -1.557,-0.836c-0.626,-0.223 -1.317,-0.335 -2.073,-0.335c-1.059,0 -1.898,0.241 -2.517,0.721c-0.619,0.481 -0.928,1.084 -0.928,1.808c0,0.683 0.296,1.251 0.887,1.703c0.591,0.453 1.774,0.854 3.548,1.202c2.764,0.558 4.813,1.376 6.147,2.456c1.334,1.08 2.001,2.567 2.001,4.462c0,2.034 -0.863,3.696 -2.589,4.985c-1.726,1.288 -3.998,1.933 -6.817,1.933c-1.719,0 -3.297,-0.254 -4.734,-0.763c-1.437,-0.509 -2.713,-1.237 -3.827,-2.184l-0.062,-5.079l4.208,0l0.826,2.947c0.357,0.307 0.845,0.533 1.464,0.679c0.619,0.147 1.265,0.22 1.939,0.22c1.224,0 2.156,-0.223 2.795,-0.669c0.639,-0.446 0.959,-1.052 0.959,-1.818c0,-0.669 -0.323,-1.247 -0.969,-1.735c-0.647,-0.487 -1.836,-0.919 -3.569,-1.296c-2.626,-0.543 -4.61,-1.348 -5.951,-2.414c-1.341,-1.065 -2.011,-2.518 -2.011,-4.357c0,-1.895 0.77,-3.529 2.31,-4.901c1.54,-1.373 3.734,-2.059 6.58,-2.059c1.733,0 3.373,0.237 4.92,0.711c1.547,0.474 2.761,1.08 3.641,1.818l0.062,5.622Z" style="fill:url(#_Linear1);fill-rule:nonzero;"/><path d="M28.57,104.241l0,-3.679l9.242,0l0,28.32l2.908,0.627l0,3.657l-11.84,0l0,-3.657l2.908,-0.627l0,-24.014l-3.218,-0.627Z" style="fill:url(#_Linear2);fill-rule:nonzero;"/><path d="M42.494,129.509l2.908,-0.627l0,-14.024l-3.217,-0.627l0,-3.679l9.241,0l0,18.33l2.887,0.627l0,3.657l-11.819,0l0,-3.657Z" style="fill:url(#_Linear3);fill-rule:nonzero;"/><path d="M70.815,130.407c-0.701,1.045 -1.53,1.839 -2.485,2.383c-0.956,0.543 -2.046,0.815 -3.27,0.815c-2.75,0 -4.885,-1.017 -6.405,-3.051c-1.519,-2.035 -2.279,-4.724 -2.279,-8.068l0,-0.439c0,-3.567 0.763,-6.444 2.29,-8.631c1.526,-2.188 3.671,-3.282 6.436,-3.282c1.113,0 2.117,0.248 3.011,0.742c0.894,0.495 1.678,1.195 2.352,2.101l0,-8.109l-3.218,-0.627l0,-3.679l9.241,0l0,28.32l2.888,0.627l0,3.657l-8.107,0l-0.454,-2.759Zm-8.416,-7.921c0,1.979 0.327,3.536 0.98,4.671c0.653,1.136 1.723,1.704 3.208,1.704c0.88,0 1.643,-0.181 2.289,-0.544c0.647,-0.362 1.176,-0.885 1.589,-1.567l0,-9.593c-0.413,-0.725 -0.939,-1.286 -1.578,-1.683c-0.64,-0.397 -1.393,-0.595 -2.259,-0.595c-1.471,0 -2.544,0.661 -3.218,1.985c-0.674,1.324 -1.011,3.052 -1.011,5.183l0,0.439Z" style="fill:url(#_Linear4);fill-rule:nonzero;"/><path d="M91.979,133.605c-3.218,0 -5.789,-1.045 -7.715,-3.135c-1.925,-2.09 -2.888,-4.744 -2.888,-7.963l0,-0.836c0,-3.358 0.912,-6.124 2.734,-8.297c1.822,-2.174 4.266,-3.254 7.333,-3.24c3.011,0 5.349,0.92 7.013,2.759c1.664,1.839 2.496,4.326 2.496,7.461l0,3.323l-13.325,0l-0.042,0.126c0.11,1.491 0.602,2.717 1.475,3.678c0.873,0.962 2.059,1.442 3.558,1.442c1.334,0 2.441,-0.136 3.321,-0.407c0.88,-0.272 1.843,-0.7 2.888,-1.286l1.63,3.762c-0.922,0.739 -2.115,1.359 -3.579,1.861c-1.465,0.501 -3.098,0.752 -4.899,0.752Zm-0.536,-18.768c-1.114,0 -1.994,0.432 -2.641,1.296c-0.646,0.864 -1.045,1.999 -1.196,3.406l0.062,0.105l7.384,0l0,-0.544c0,-1.295 -0.299,-2.33 -0.897,-3.103c-0.598,-0.773 -1.502,-1.16 -2.712,-1.16Z" style="fill:url(#_Linear5);fill-rule:nonzero;"/><path d="M112.689,101.428l0,9.124l3.919,0l0,4.285l-3.919,0l0,11.516c0,0.877 0.179,1.504 0.536,1.881c0.358,0.376 0.839,0.564 1.444,0.564c0.413,0 0.774,-0.017 1.083,-0.052c0.309,-0.035 0.657,-0.094 1.042,-0.178l0.515,4.41c-0.673,0.209 -1.34,0.366 -2.001,0.47c-0.66,0.105 -1.375,0.157 -2.145,0.157c-2.076,0 -3.675,-0.578 -4.796,-1.735c-1.12,-1.156 -1.681,-2.988 -1.681,-5.496l0,-11.537l-3.28,0l0,-4.285l3.28,0l0,-9.124l6.003,0Z" style="fill:url(#_Linear6);fill-rule:nonzero;"/><path d="M119.372,129.509l2.909,-0.627l0,-14.024l-3.218,-0.627l0,-3.679l9.241,0l0,18.33l2.888,0.627l0,3.657l-11.82,0l0,-3.657Z" style="fill:url(#_Linear7);fill-rule:nonzero;"/><path d="M147.693,130.407c-0.701,1.045 -1.529,1.839 -2.485,2.383c-0.956,0.543 -2.046,0.815 -3.27,0.815c-2.75,0 -4.885,-1.017 -6.404,-3.051c-1.52,-2.035 -2.28,-4.724 -2.28,-8.068l0,-0.439c0,-3.567 0.763,-6.444 2.29,-8.631c1.526,-2.188 3.672,-3.282 6.436,-3.282c1.114,0 2.117,0.248 3.011,0.742c0.894,0.495 1.678,1.195 2.352,2.101l0,-8.109l-3.218,-0.627l0,-3.679l9.241,0l0,28.32l2.888,0.627l0,3.657l-8.107,0l-0.454,-2.759Zm-8.416,-7.921c0,1.979 0.327,3.536 0.98,4.671c0.653,1.136 1.723,1.704 3.208,1.704c0.88,0 1.643,-0.181 2.289,-0.544c0.647,-0.362 1.176,-0.885 1.589,-1.567l0,-9.593c-0.413,-0.725 -0.939,-1.286 -1.578,-1.683c-0.64,-0.397 -1.393,-0.595 -2.259,-0.595c-1.471,0 -2.544,0.661 -3.218,1.985c-0.674,1.324 -1.011,3.052 -1.011,5.183l0,0.439Z" style="fill:url(#_Linear8);fill-rule:nonzero;"/><path d="M168.857,133.605c-3.218,0 -5.789,-1.045 -7.715,-3.135c-1.925,-2.09 -2.887,-4.744 -2.887,-7.963l0,-0.836c0,-3.358 0.911,-6.124 2.733,-8.297c1.822,-2.174 4.266,-3.254 7.333,-3.24c3.011,0 5.349,0.92 7.013,2.759c1.664,1.839 2.496,4.326 2.496,7.461l0,3.323l-13.325,0l-0.042,0.126c0.11,1.491 0.602,2.717 1.475,3.678c0.874,0.962 2.06,1.442 3.559,1.442c1.333,0 2.44,-0.136 3.321,-0.407c0.88,-0.272 1.842,-0.7 2.887,-1.286l1.63,3.762c-0.921,0.739 -2.114,1.359 -3.579,1.861c-1.464,0.501 -3.097,0.752 -4.899,0.752Zm-0.536,-18.768c-1.114,0 -1.994,0.432 -2.641,1.296c-0.646,0.864 -1.045,1.999 -1.196,3.406l0.062,0.105l7.385,0l0,-0.544c0,-1.295 -0.3,-2.33 -0.898,-3.103c-0.598,-0.773 -1.502,-1.16 -2.712,-1.16Z" style="fill:url(#_Linear9);fill-rule:nonzero;"/><circle cx="125.351" cy="103.468" r="2.906" style="fill:#0d0d0d;"/><circle cx="48.258" cy="103.468" r="2.906" style="fill:#0d0d0d;"/><path d="M112.129,32.64l-39.286,0l0,30.564l39.286,0l0,-30.564Zm4.911,0l0,30.564l2.455,0l0,4.702l-54.019,0l0,-4.702l2.456,0l0,-30.564l-2.456,0l0,-7.053l54.019,0l0,7.053l-2.455,0Zm-43.996,51.512l6.448,0l8.397,-11.544l-6.462,0l-8.383,11.544Zm16.986,0l4.911,0l0,-11.544l-4.911,0l0,11.544Zm13.476,-11.544l8.382,11.544l-6.45,0l-8.397,-11.544l6.465,0Z" style="fill:#0d0d0d;fill-rule:nonzero;"/><path d="M121.234,65.607c0,-1.566 -1.272,-2.838 -2.839,-2.838l-51.818,0c-1.567,0 -2.839,1.272 -2.839,2.838c0,1.567 1.272,2.839 2.839,2.839l51.818,0c1.567,0 2.839,-1.272 2.839,-2.839Z" style="fill:#0d0d0d;"/><circle cx="74.245" cy="84.687" r="5.284" style="fill:#0d0d0d;"/><circle cx="110.162" cy="84.687" r="5.284" style="fill:#0d0d0d;"/><circle cx="92.558" cy="82.815" r="5.284" style="fill:#0d0d0d;"/><path d="M120.337,29.133c0,-2.23 -1.811,-4.042 -4.042,-4.042l-49.411,0c-2.231,0 -4.042,1.812 -4.042,4.042c0,2.231 1.811,4.042 4.042,4.042l49.411,0c2.231,0 4.042,-1.811 4.042,-4.042Z" style="fill:#0d0d0d;"/><path d="M83.846,53.352c9.717,1.363 6.81,-9.209 15.85,-8.79l3.727,3.488c0.305,11.843 -14.262,13.653 -19.577,5.302Zm30.799,-13.445c3.31,-4.593 13.624,-20.043 13.624,-20.043c0.826,-1.282 -0.759,-2.762 -1.977,-1.849c0,0 -14.681,11.368 -19.026,14.988c-3.433,2.865 -3.527,4.256 -4.868,9.22l3.407,3.185c4.847,-1.679 6.226,-1.868 8.84,-5.501Z" style="fill:#0d0d0d;fill-rule:nonzero;"/></g></g><defs><linearGradient id="_Linear1" x1="0" y1="0" x2="1" y2="0" gradientUnits="userSpaceOnUse" gradientTransform="matrix(110.83,78.5034,-77.48,112.294,734.052,2448.61)"><stop offset="0" style="stop-color:#0d0d0d;stop-opacity:1"/><stop offset="1" style="stop-color:#0d0d0d;stop-opacity:0"/></linearGradient><linearGradient id="_Linear2" x1="0" y1="0" x2="1" y2="0" gradientUnits="userSpaceOnUse" gradientTransform="matrix(110.83,78.5034,-77.48,112.294,734.052,2448.61)"><stop offset="0" style="stop-color:#0d0d0d;stop-opacity:1"/><stop offset="1" style="stop-color:#0d0d0d;stop-opacity:0"/></linearGradient><linearGradient id="_Linear3" x1="0" y1="0" x2="1" y2="0" gradientUnits="userSpaceOnUse" gradientTransform="matrix(110.83,78.5034,-77.48,112.294,734.052,2448.61)"><stop offset="0" style="stop-color:#0d0d0d;stop-opacity:1"/><stop offset="1" style="stop-color:#0d0d0d;stop-opacity:0"/></linearGradient><linearGradient id="_Linear4" x1="0" y1="0" x2="1" y2="0" gradientUnits="userSpaceOnUse" gradientTransform="matrix(110.83,78.5034,-77.48,112.294,734.052,2448.61)"><stop offset="0" style="stop-color:#0d0d0d;stop-opacity:1"/><stop offset="1" style="stop-color:#0d0d0d;stop-opacity:0"/></linearGradient><linearGradient id="_Linear5" x1="0" y1="0" x2="1" y2="0" gradientUnits="userSpaceOnUse" gradientTransform="matrix(110.83,78.5034,-77.48,112.294,734.052,2448.61)"><stop offset="0" style="stop-color:#0d0d0d;stop-opacity:1"/><stop offset="1" style="stop-color:#0d0d0d;stop-opacity:0"/></linearGradient><linearGradient id="_Linear6" x1="0" y1="0" x2="1" y2="0" gradientUnits="userSpaceOnUse" gradientTransform="matrix(110.83,78.5034,-77.48,112.294,734.052,2448.61)"><stop offset="0" style="stop-color:#0d0d0d;stop-opacity:1"/><stop offset="1" style="stop-color:#0d0d0d;stop-opacity:0"/></linearGradient><linearGradient id="_Linear7" x1="0" y1="0" x2="1" y2="0" gradientUnits="userSpaceOnUse" gradientTransform="matrix(110.83,78.5034,-77.48,112.294,734.052,2448.61)"><stop offset="0" style="stop-color:#0d0d0d;stop-opacity:1"/><stop offset="1" style="stop-color:#0d0d0d;stop-opacity:0"/></linearGradient><linearGradient id="_Linear8" x1="0" y1="0" x2="1" y2="0" gradientUnits="userSpaceOnUse" gradientTransform="matrix(110.83,78.5034,-77.48,112.294,734.052,2448.61)"><stop offset="0" style="stop-color:#0d0d0d;stop-opacity:1"/><stop offset="1" style="stop-color:#0d0d0d;stop-opacity:0"/></linearGradient><linearGradient id="_Linear9" x1="0" y1="0" x2="1" y2="0" gradientUnits="userSpaceOnUse" gradientTransform="matrix(110.83,78.5034,-77.48,112.294,734.052,2448.61)"><stop offset="0" style="stop-color:#0d0d0d;stop-opacity:1"/><stop offset="1" style="stop-color:#0d0d0d;stop-opacity:0"/></linearGradient></defs></svg>