<?xml version="1.0" encoding="UTF-8" standalone="no"?><!DOCTYPE svg PUBLIC "-//W3C//DTD SVG 1.1//EN" "http://www.w3.org/Graphics/SVG/1.1/DTD/svg11.dtd"><svg width="100%" height="100%" viewBox="0 0 186 149" version="1.1" xmlns="http://www.w3.org/2000/svg" xmlns:xlink="http://www.w3.org/1999/xlink" xml:space="preserve" xmlns:serif="http://www.serif.com/" style="fill-rule:evenodd;clip-rule:evenodd;stroke-linejoin:round;stroke-miterlimit:1.41421;"><g><g opacity="0.278571"><g><path d="M112.157,18.094l-47.682,0l0,37.096l47.682,0l0,-37.096Zm5.961,0l0,37.096l2.98,0l0,5.707l-65.563,0l0,-5.707l2.98,0l0,-37.096l-2.98,0l0,-8.56l65.563,0l0,8.56l-2.98,0Zm-53.398,62.52l7.825,0l10.192,-14.01l-7.843,0l-10.174,14.01Zm20.616,0l5.96,0l0,-14.01l-5.96,0l0,14.01Zm16.355,-14.01l10.174,14.01l-7.829,0l-10.192,-14.01l7.847,0Z" style="fill:#0d0d0d;fill-rule:nonzero;"/><path d="M123.207,58.107c0,-1.902 -1.543,-3.445 -3.445,-3.445l-62.892,0c-1.901,0 -3.445,1.543 -3.445,3.445c0,1.901 1.544,3.445 3.445,3.445l62.892,0c1.902,0 3.445,-1.544 3.445,-3.445Z" style="fill:#0d0d0d;"/><circle cx="66.178" cy="81.264" r="6.414" style="fill:#0d0d0d;"/><circle cx="109.77" cy="81.264" r="6.414" style="fill:#0d0d0d;"/><circle cx="88.403" cy="78.992" r="6.414" style="fill:#0d0d0d;"/><path d="M123.207,13.838c0,-2.708 -2.198,-4.906 -4.905,-4.906l-59.971,0c-2.708,0 -4.906,2.198 -4.906,4.906c0,2.707 2.198,4.906 4.906,4.906l59.971,0c2.707,0 4.905,-2.199 4.905,-4.906Z" style="fill:#0d0d0d;"/><path d="M77.83,43.232c11.794,1.655 8.266,-11.177 19.237,-10.668l4.524,4.233c0.37,14.374 -17.311,16.57 -23.761,6.435Zm37.381,-16.318c4.017,-5.575 16.536,-24.326 16.536,-24.326c1.002,-1.557 -0.922,-3.353 -2.4,-2.245c0,0 -17.819,13.798 -23.092,18.192c-4.167,3.476 -4.28,5.165 -5.908,11.19l4.135,3.865c5.882,-2.037 7.556,-2.266 10.729,-6.676Z" style="fill:#0d0d0d;fill-rule:nonzero;"/></g><g><path d="M18.041,124.475l-4.165,0l-0.658,-2.868c-0.425,-0.34 -0.96,-0.624 -1.605,-0.85c-0.644,-0.227 -1.356,-0.34 -2.135,-0.34c-1.091,0 -1.955,0.244 -2.593,0.733c-0.637,0.488 -0.956,1.101 -0.956,1.838c0,0.694 0.304,1.271 0.914,1.732c0.609,0.46 1.827,0.867 3.655,1.222c2.847,0.566 4.958,1.399 6.332,2.496c1.374,1.098 2.061,2.611 2.061,4.537c0,2.069 -0.889,3.758 -2.667,5.068c-1.778,1.311 -4.119,1.966 -7.023,1.966c-1.771,0 -3.396,-0.258 -4.877,-0.776c-1.48,-0.517 -2.794,-1.257 -3.941,-2.22l-0.064,-5.164l4.335,0l0.85,2.996c0.368,0.312 0.871,0.542 1.509,0.691c0.637,0.149 1.303,0.223 1.997,0.223c1.261,0 2.221,-0.227 2.879,-0.68c0.659,-0.453 0.989,-1.069 0.989,-1.849c0,-0.68 -0.333,-1.268 -0.999,-1.763c-0.666,-0.496 -1.891,-0.935 -3.676,-1.318c-2.706,-0.552 -4.75,-1.371 -6.131,-2.454c-1.381,-1.084 -2.072,-2.561 -2.072,-4.431c0,-1.927 0.793,-3.588 2.38,-4.983c1.587,-1.395 3.846,-2.093 6.779,-2.093c1.785,0 3.474,0.241 5.068,0.722c1.594,0.482 2.844,1.098 3.751,1.849l0.063,5.716Z" style="fill:#0d0d0d;fill-rule:nonzero;"/><path d="M21.016,110.153l0,-3.74l9.52,0l0,28.794l2.997,0.637l0,3.719l-12.198,0l0,-3.719l2.996,-0.637l0,-24.417l-3.315,-0.637Z" style="fill:#0d0d0d;fill-rule:nonzero;"/><path d="M35.36,135.844l2.996,-0.637l0,-14.259l-3.315,-0.638l0,-3.74l9.52,0l0,18.637l2.975,0.637l0,3.719l-12.176,0l0,-3.719Z" style="fill:#0d0d0d;fill-rule:nonzero;"/><path d="M64.536,136.758c-0.722,1.062 -1.576,1.87 -2.56,2.422c-0.985,0.553 -2.108,0.829 -3.368,0.829c-2.834,0 -5.033,-1.034 -6.598,-3.102c-1.566,-2.069 -2.349,-4.803 -2.349,-8.203l0,-0.446c0,-3.627 0.787,-6.552 2.359,-8.776c1.573,-2.225 3.783,-3.337 6.63,-3.337c1.148,0 2.182,0.252 3.103,0.755c0.92,0.503 1.728,1.214 2.422,2.135l0,-8.245l-3.315,-0.637l0,-3.74l9.52,0l0,28.794l2.975,0.637l0,3.719l-8.351,0l-0.468,-2.805Zm-8.67,-8.054c0,2.012 0.337,3.595 1.01,4.749c0.673,1.155 1.774,1.732 3.304,1.732c0.907,0 1.693,-0.184 2.359,-0.552c0.666,-0.368 1.211,-0.9 1.636,-1.594l0,-9.754c-0.425,-0.736 -0.967,-1.307 -1.625,-1.71c-0.659,-0.404 -1.435,-0.606 -2.327,-0.606c-1.516,0 -2.621,0.673 -3.315,2.019c-0.695,1.346 -1.042,3.102 -1.042,5.27l0,0.446Z" style="fill:#0d0d0d;fill-rule:nonzero;"/><path d="M86.339,140.009c-3.315,0 -5.964,-1.062 -7.948,-3.187c-1.983,-2.125 -2.975,-4.824 -2.975,-8.097l0,-0.85c0,-3.414 0.939,-6.226 2.816,-8.436c1.877,-2.21 4.395,-3.308 7.554,-3.294c3.103,0 5.511,0.935 7.225,2.805c1.715,1.87 2.572,4.399 2.572,7.587l0,3.378l-13.728,0l-0.042,0.128c0.113,1.516 0.62,2.762 1.519,3.74c0.9,0.977 2.122,1.466 3.666,1.466c1.374,0 2.514,-0.138 3.421,-0.414c0.907,-0.277 1.898,-0.712 2.975,-1.307l1.679,3.825c-0.949,0.751 -2.178,1.381 -3.687,1.891c-1.509,0.51 -3.191,0.765 -5.047,0.765Zm-0.553,-19.082c-1.147,0 -2.054,0.439 -2.72,1.317c-0.665,0.878 -1.076,2.033 -1.232,3.464l0.064,0.106l7.607,0l0,-0.552c0,-1.318 -0.308,-2.37 -0.924,-3.156c-0.616,-0.786 -1.548,-1.179 -2.795,-1.179Z" style="fill:#0d0d0d;fill-rule:nonzero;"/><path d="M117.279,124.475l-4.165,0l-0.659,-2.868c-0.425,-0.34 -0.96,-0.624 -1.604,-0.85c-0.645,-0.227 -1.357,-0.34 -2.136,-0.34c-1.091,0 -1.955,0.244 -2.592,0.733c-0.638,0.488 -0.956,1.101 -0.956,1.838c0,0.694 0.304,1.271 0.913,1.732c0.609,0.46 1.828,0.867 3.655,1.222c2.848,0.566 4.959,1.399 6.333,2.496c1.374,1.098 2.061,2.611 2.061,4.537c0,2.069 -0.889,3.758 -2.667,5.068c-1.778,1.311 -4.119,1.966 -7.023,1.966c-1.771,0 -3.396,-0.258 -4.877,-0.776c-1.48,-0.517 -2.794,-1.257 -3.942,-2.22l-0.063,-5.164l4.335,0l0.85,2.996c0.368,0.312 0.871,0.542 1.508,0.691c0.638,0.149 1.304,0.223 1.998,0.223c1.261,0 2.22,-0.227 2.879,-0.68c0.659,-0.453 0.988,-1.069 0.988,-1.849c0,-0.68 -0.333,-1.268 -0.998,-1.763c-0.666,-0.496 -1.892,-0.935 -3.677,-1.318c-2.706,-0.552 -4.749,-1.371 -6.13,-2.454c-1.382,-1.084 -2.072,-2.561 -2.072,-4.431c0,-1.927 0.793,-3.588 2.38,-4.983c1.586,-1.395 3.846,-2.093 6.779,-2.093c1.785,0 3.474,0.241 5.068,0.722c1.593,0.482 2.844,1.098 3.75,1.849l0.064,5.716Z" style="fill:#0d0d0d;fill-rule:nonzero;"/><path d="M120.722,135.844l2.996,-0.637l0,-14.259l-3.315,-0.638l0,-3.74l9.52,0l0,18.637l2.975,0.637l0,3.719l-12.176,0l0,-3.719Z" style="fill:#0d0d0d;fill-rule:nonzero;"/><circle cx="41.185" cy="110.882" r="3.377" style="fill:#0d0d0d;"/><circle cx="126.593" cy="110.882" r="3.377" style="fill:#0d0d0d;"/><path d="M135.32,128.258c0,-3.627 0.79,-6.552 2.37,-8.776c1.579,-2.225 3.793,-3.337 6.64,-3.337c1.29,0 2.423,0.287 3.4,0.861c0.978,0.574 1.814,1.392 2.508,2.454l0.446,-2.89l5.398,0l0,22.313c0,3.032 -0.953,5.451 -2.858,7.257c-1.906,1.806 -4.523,2.709 -7.852,2.709c-1.162,0 -2.395,-0.159 -3.698,-0.478c-1.303,-0.319 -2.507,-0.754 -3.612,-1.307l1.147,-4.356c0.992,0.425 1.983,0.761 2.975,1.009c0.992,0.248 2.04,0.372 3.145,0.372c1.516,0 2.649,-0.46 3.4,-1.381c0.751,-0.921 1.126,-2.203 1.126,-3.846l0,-1.509c-0.68,0.864 -1.48,1.523 -2.401,1.976c-0.921,0.453 -1.976,0.68 -3.166,0.68c-2.819,0 -5.019,-1.038 -6.598,-3.113c-1.58,-2.075 -2.37,-4.806 -2.37,-8.192l0,-0.446Zm6.205,0.446c0,2.012 0.34,3.595 1.02,4.749c0.68,1.155 1.785,1.732 3.315,1.732c0.95,0 1.753,-0.173 2.412,-0.52c0.659,-0.347 1.187,-0.854 1.583,-1.52l0,-9.987c-0.396,-0.694 -0.924,-1.233 -1.583,-1.615c-0.659,-0.383 -1.448,-0.574 -2.369,-0.574c-1.516,0 -2.625,0.673 -3.326,2.019c-0.701,1.346 -1.052,3.102 -1.052,5.27l0,0.446Z" style="fill:#0d0d0d;fill-rule:nonzero;"/><path d="M159.46,135.844l2.975,-0.637l0,-14.259l-3.293,-0.638l0,-3.74l9.073,0l0.277,3.294c0.765,-1.176 1.707,-2.09 2.826,-2.741c1.119,-0.652 2.373,-0.978 3.761,-0.978c2.324,0 4.137,0.73 5.44,2.189c1.304,1.459 1.955,3.747 1.955,6.864l0,10.009l2.975,0.637l0,3.719l-11.857,0l0,-3.719l2.656,-0.637l0,-9.988c0,-1.544 -0.312,-2.638 -0.935,-3.283c-0.623,-0.645 -1.565,-0.967 -2.826,-0.967c-0.822,0 -1.559,0.167 -2.21,0.499c-0.652,0.333 -1.197,0.804 -1.637,1.414l0,12.325l2.508,0.637l0,3.719l-11.688,0l0,-3.719Z" style="fill:#0d0d0d;fill-rule:nonzero;"/></g></g></g></svg>