<?xml version="1.0" encoding="UTF-8" standalone="no"?><!DOCTYPE svg PUBLIC "-//W3C//DTD SVG 1.1//EN" "http://www.w3.org/Graphics/SVG/1.1/DTD/svg11.dtd"><svg width="100%" height="100%" viewBox="0 0 100 87" version="1.1" xmlns="http://www.w3.org/2000/svg" xmlns:xlink="http://www.w3.org/1999/xlink" xml:space="preserve" xmlns:serif="http://www.serif.com/" style="fill-rule:evenodd;clip-rule:evenodd;stroke-linejoin:round;stroke-miterlimit:1.41421;"><path id="quote" d="M19.129,0c-10.562,0 -19.129,8.81 -19.129,19.68c0,10.87 8.567,19.68 19.129,19.68c19.122,0 6.376,38.041 -19.129,38.041l0,9.184c45.52,0.007 63.357,-86.585 19.129,-86.585l0,0Zm55.104,0c-10.555,0 -19.122,8.81 -19.122,19.68c0,10.87 8.567,19.68 19.122,19.68c19.129,0 6.383,38.041 -19.122,38.041l0,9.184c45.513,0.007 63.35,-86.585 19.122,-86.585l0,0Z" style="fill:url(#_Linear1);fill-rule:nonzero;"/><defs><linearGradient id="_Linear1" x1="0" y1="0" x2="1" y2="0" gradientUnits="userSpaceOnUse" gradientTransform="matrix(195.404,222.619,-222.619,195.404,-103.417,-85.9994)"><stop offset="0" style="stop-color:#bebebe;stop-opacity:0.464286"/><stop offset="1" style="stop-color:#bebebe;stop-opacity:0"/></linearGradient></defs></svg>